{"title":"Aarakshan (2011) .Xvid.DvdScr-Rip .AC3  -=![R!pGuru]!=- TDT","uid":6613040,"size":945683546,"categoryP":"video","categoryS":"movies","magnet":"?xt=urn:btih:3d7c8cccc50922ac7ca46a7bad7b450d99f898b1&amp;dn=Aarakshan+%282011%29+.Xvid.DvdScr-Rip+.AC3++-%3D%21%5BR%21pGuru%5D%21%3D-+TDT&amp;tr=udp%3A%2F%2Ftracker.openbittorrent.com%3A80&amp;tr=udp%3A%2F%2Fopen.demonii.com%3A1337&amp;tr=udp%3A%2F%2Ftracker.coppersurfer.tk%3A6969&amp;tr=udp%3A%2F%2Fexodus.desync.com%3A6969","seeders":0,"leechers":1,"uploader":"sawant12","files":3,"time":1313663709,"description":"\n\n\nAarakshan (2011) .Xvid.DvdScr-Rip .AC3  -=![R!pGuru]!=- TDT\n\n\n\nSCREENSHOTS:\nIf u r unable to see screenshots.\nCopy the link and paste in your browsers URL (address). \n &lt;a href=&quot;\nhttp://img98.imageshack.us/img98/4664/vlcsnap2011081609h44m57.png&quot; rel=&quot;nofollow&quot; target=&quot;_NEW&quot;&gt;\nhttp://img98.imageshack.us/img98/4664/vlcsnap2011081609h44m57.png&lt;/a&gt; &lt;a href=&quot;\nhttp://img825.imageshack.us/img825/125/vlcsnap2011081609h45m15.png&quot; rel=&quot;nofollow&quot; target=&quot;_NEW&quot;&gt;\nhttp://img825.imageshack.us/img825/125/vlcsnap2011081609h45m15.png&lt;/a&gt; &lt;a href=&quot;\nhttp://img193.imageshack.us/img193/7141/vlcsnap2011081609h47m56.png&quot; rel=&quot;nofollow&quot; target=&quot;_NEW&quot;&gt;\nhttp://img193.imageshack.us/img193/7141/vlcsnap2011081609h47m56.png&lt;/a&gt; &lt;a href=&quot;\nhttp://img834.imageshack.us/img834/5061/vlcsnap2011081614h56m18.png&quot; rel=&quot;nofollow&quot; target=&quot;_NEW&quot;&gt;\nhttp://img834.imageshack.us/img834/5061/vlcsnap2011081614h56m18.png&lt;/a&gt;\n\nGeneral\nComplete name : Aarakshan (2011) - Xvid - DvdScr-Rip - AC3 - TDT.avi\nIMDB : www.imdb.com/title/tt1848771/\nFormat : AVI\nFormat/Info : Audio Video Interleave\nFile size : 896 MiB\nDuration : 2h 38mn\nOverall bit rate : 788 Kbps\nWriting application : VirtualDubMod 1.5.10.3 | www.virtualdub-fr.org || (build 2550/release)\nWriting library : VirtualDubMod build 2550/release\nSource : DvdScreener @ Team ICTV .. Thnx A LOT\nRipper : KINGFISHER [~TDT~].\nVideo\nID : 0\nFormat : MPEG-4 Visual\nFormat profile : Advanced Simple@L5\nFormat settings, BVOP : 1\nFormat settings, QPel : No\nFormat settings, GMC : No warppoints\nFormat settings, Matrix : Default (H.263)\nMuxing mode : Packed bitstream\nCodec ID : XVID\nCodec ID/Hint : XviD\nDuration : 2h 38mn\nBit rate : 651 Kbps\nWidth : 656 pixels\nHeight : 288 pixels\nDisplay aspect ratio : 2.25:1\nFrame rate : 23.976 fps\nColor space : YUV\nChroma subsampling : 4:2:0\nBit depth : 8 bits\nScan type : Progressive\nCompression mode : Lossy\nBits/(Pixel*Frame) : 0.144\nStream size : 739 MiB (83%)\nWriting library : XviD 1.2.1 (UTC 2008-12-04)\n\nAudio\nID : 1\nFormat : AC-3\nFormat/Info : Audio Coding 3\nMode extension : CM (complete main)\nCodec ID : 2000\nDuration : 2h 38mn\nBit rate mode : Constant\nBit rate : 128 Kbps\nChannel(s) : 2 channels\nChannel positions : Front: L R\nSampling rate : 48.0 KHz\nBit depth : 16 bits\nCompression mode : Lossy\nStream size : 145 MiB (16%)\nAlignment : Split accross interleaves\nInterleave, duration : 42 ms (1.00 video frame)\nInterleave, preload duration : 500 ms\n\nRipper Note :- Give Proper Credits To Team TDT wherever u share dis file ....","torrent":{"xt":"urn:btih:3d7c8cccc50922ac7ca46a7bad7b450d99f898b1","amp;dn":"Aarakshan+%282011%29+.Xvid.DvdScr-Rip+.AC3++-%3D%21%5BR%21pGuru%5D%21%3D-+TDT","amp;tr":["udp%3A%2F%2Ftracker.openbittorrent.com%3A80","udp%3A%2F%2Fopen.demonii.com%3A1337","udp%3A%2F%2Ftracker.coppersurfer.tk%3A6969","udp%3A%2F%2Fexodus.desync.com%3A6969"],"infoHash":"3d7c8cccc50922ac7ca46a7bad7b450d99f898b1","infoHashBuffer":{"type":"Buffer","data":[61,124,140,204,197,9,34,172,124,164,106,123,173,123,69,13,153,248,152,177]},"announce":[],"urlList":[]}}